<svg xmlns="http://www.w3.org/2000/svg" viewBox="0 0 128 128" width="128" height="128">
  <defs>
    <linearGradient id="g1" x1="0" x2="1" y1="0" y2="1">
      <stop offset="0%" stop-color="#22d3ee"/>
      <stop offset="100%" stop-color="#6366f1"/>
    </linearGradient>
  </defs>
  <path d="M38 58c-10 0-18-8-18-18s8-18 18-18c6 0 11 3 14 7 3-4 8-7 14-7 10 0 18 8 18 18 0 3-.7 6-2 9 7 1 12 7 12 14 0 8-6 14-14 14H40c-8 0-14-6-14-14 0-8 6-14 12-15z" fill="url(#g1)" opacity=".8"/>
  <rect x="26" y="64" width="76" height="34" rx="10" fill="#0b1220" stroke="#243145"/>
  <rect x="34" y="74" width="60" height="8" rx="4" fill="#1f2937"/>
</svg>

